<?xml version='1.0' encoding='utf-8'?>
<!DOCTYPE svg PUBLIC '-//W3C//DTD SVG 1.1//EN' 'http://www.w3.org/Graphics/SVG/1.1/DTD/svg11.dtd'>
<svg version="1.1" xmlns="http://www.w3.org/2000/svg" viewBox="0 0 512 512" xmlns:xlink="http://www.w3.org/1999/xlink" enable-background="new 0 0 512 512">
  <g>
    <g>
      <path d="m463.6,195.9c-1.3-10.2-10-17.8-20.2-17.8h-49.7v-29.3c0-76-61.8-137.8-137.8-137.8s-137.8,61.9-137.8,137.9v29.3h-49.7c-10.2,0-18.9,7.6-20.2,17.8l-37,281.9c-1.2,18.8 14.4,23.1 20.2,23.1h449c0.1,0 0.1,0 0.2,0 11.3,0 20.4-9.1 20.4-20.4 5.68434e-14-2-37.4-284.7-37.4-284.7zm-304.6-47c0-53.5 43.5-96.9 96.9-96.9 53.5,0 96.9,43.5 96.9,96.9v29.3h-193.8v-29.3zm-104.3,311.2l31.6-241.1h31.8v19.7c0,11.3 9.1,20.4 20.4,20.4 11.3,0 20.4-9.1 20.4-20.4v-19.7h193.9v19.7c0,11.3 9.1,20.4 20.4,20.4 11.3,0 20.4-9.1 20.4-20.4v-19.7h31.8l31.6,241.1h-402.3z"/>
      <path d="m293.7,349.7c-5.8-5.3-14.7-9.5-26.9-12.6v-24.3c6.1,1.7 12.6,5.1 19.7,10.1l13.8-19.9c-11.1-7.8-22.3-12.4-33.5-14v-8.6h-17.9v8.3c-10.2,1.2-18.5,5-24.8,11.2-6.3,6.2-9.4,14.2-9.4,23.8 0,9.6 2.8,17 8.3,22.1 5.5,5.1 14.2,9.2 26,12.2v25c-7.1-2.1-15-7-23.8-14.7l-15.7,19c12,10.7 25.2,17.1 39.4,19.4v12.3h17.9v-11.8c10.8-1.2 19.4-5 25.9-11.3 6.5-6.3 9.7-14.3 9.7-23.9-0.1-9.6-2.9-17-8.7-22.3zm-44.8-18.1c-4.8-2.4-7.2-5.8-7.2-10.3 0-4.5 2.4-7.6 7.2-9.3v19.6zm17.9,52.3v-20.7c3.3,1.3 5.5,2.8 6.7,4.4 1.2,1.6 1.9,3.5 1.9,5.9 0,5.1-2.9,8.6-8.6,10.4z"/>
    </g>
  </g>
</svg>
